<svg xmlns="http://www.w3.org/2000/svg"  viewBox="0 0 24 24" width="96px" height="96px"><path d="M 11.546875 2.0761719 C 10.902597 2.0761719 10.296332 2.1657049 9.8027344 2.5195312 C 9.3091368 2.8733573 9.0750721 3.2922646 8.7421875 3.7988281 C 8.4808955 4.1969694 7.9698885 5.1178562 7.2246094 6.4667969 C 6.4793302 7.8157375 5.5536816 9.515331 4.6484375 11.193359 C 3.7431934 12.871388 2.8589616 14.525822 2.1992188 15.789062 C 1.8693472 16.420684 1.5959703 16.954589 1.4003906 17.349609 C 1.3026008 17.54712 1.2259929 17.708351 1.1660156 17.841797 C 1.136027 17.90852 1.1092043 17.966788 1.0839844 18.033203 C 1.0587644 18.099619 1 18.035574 1 18.455078 C 1 19.141001 1.2320385 19.913934 1.7832031 20.712891 C 2.1277499 21.21327 2.592585 21.634341 3.2226562 21.830078 C 3.8522419 22.025664 4.7027931 21.860358 5.2382812 21.314453 C 5.5102971 21.037117 5.5239313 20.94811 5.6953125 20.681641 C 5.8666937 20.415171 6.0820284 20.067901 6.3359375 19.654297 C 6.8437557 18.827089 7.5000658 17.740402 8.2089844 16.578125 C 9.5272242 14.416861 10.976785 12.115608 11.996094 10.675781 C 13.016215 12.116432 14.467603 14.41714 15.787109 16.578125 C 16.496849 17.740481 17.153716 18.827084 17.662109 19.654297 C 17.916306 20.067903 18.133151 20.4152 18.304688 20.681641 C 18.476222 20.948081 18.488178 21.0356 18.759766 21.3125 C 19.294992 21.859227 20.145029 22.023723 20.775391 21.828125 C 21.404805 21.632821 21.870409 21.21305 22.214844 20.712891 C 22.766265 19.913562 22.998047 19.140329 22.998047 18.455078 C 22.998047 18.036704 22.939283 18.097743 22.914062 18.03125 C 22.888832 17.96476 22.863984 17.906613 22.833984 17.839844 C 22.773994 17.706305 22.695452 17.545214 22.597656 17.347656 C 22.402061 16.95254 22.128696 16.420701 21.798828 15.789062 C 21.139091 14.525787 20.256747 12.869253 19.351562 11.191406 C 18.446378 9.5135599 17.518579 7.8153828 16.773438 6.4667969 C 16.028296 5.1182109 15.519212 4.1989061 15.257812 3.8007812 L 15.259766 3.8007812 C 14.920987 3.2827491 14.657151 2.850589 14.152344 2.5058594 C 13.647537 2.1611298 13.045244 2.0761719 12.400391 2.0761719 L 11.546875 2.0761719 z M 11.546875 4.0761719 L 12.400391 4.0761719 C 12.895537 4.0761719 12.970447 4.11873 13.025391 4.15625 C 13.080331 4.19377 13.25967 4.3975166 13.585938 4.8964844 L 13.585938 4.8984375 C 13.671537 5.0288128 14.282829 6.093211 15.023438 7.4335938 C 15.764045 8.7739764 16.687528 10.468097 17.589844 12.140625 C 18.492159 13.813153 19.372877 15.4654 20.025391 16.714844 C 20.351647 17.339566 20.623108 17.86362 20.806641 18.234375 C 20.875641 18.373755 20.917394 18.465592 20.958984 18.554688 C 20.951684 18.849819 20.933294 19.049121 20.568359 19.578125 C 20.438971 19.766302 20.27061 19.876535 20.203125 19.904297 C 20.150591 19.834239 20.062705 19.718242 19.986328 19.599609 C 19.82959 19.356203 19.616131 19.015659 19.365234 18.607422 C 18.863441 17.790948 18.206651 16.70205 17.494141 15.535156 C 16.073519 13.208573 14.452229 10.590354 13.333984 9.0644531 C 12.93239 8.4858593 12.251097 8.3671875 11.964844 8.3671875 C 11.679821 8.3671875 11.000329 8.5872093 10.664062 9.0644531 L 10.669922 9.046875 C 10.666222 9.051905 10.65992 9.0633054 10.65625 9.0683594 C 10.655268 9.0697794 10.653344 9.0688901 10.652344 9.0703125 L 10.476562 9.3261719 L 10.476562 9.3476562 C 9.3665072 10.89591 7.8593798 13.311599 6.5019531 15.537109 C 5.7902467 16.703957 5.1340256 17.790973 4.6328125 18.607422 C 4.382206 19.015646 4.170232 19.358137 4.0136719 19.601562 C 3.9377004 19.719686 3.8480955 19.834072 3.7949219 19.904297 C 3.7263397 19.875574 3.5584243 19.765087 3.4296875 19.578125 C 3.0657339 19.050545 3.0465892 18.852912 3.0390625 18.558594 C 3.0807392 18.469284 3.1238504 18.376718 3.1933594 18.236328 C 3.3769086 17.865606 3.6463871 17.339567 3.9726562 16.714844 C 4.6251947 15.465397 5.5058223 13.815299 6.4082031 12.142578 C 7.310584 10.469857 8.2358104 8.7743405 8.9765625 7.4335938 C 9.7173146 6.0928468 10.327855 5.0278431 10.414062 4.8964844 C 10.748178 4.3880479 10.929098 4.1729553 10.96875 4.1445312 C 11.0084 4.1161072 11.05315 4.0761722 11.546875 4.0761719 z"/></svg>