<svg xmlns="http://www.w3.org/2000/svg" width="170.827" height="20" viewBox="0 0 170.827 20"><g transform="translate(-16 -23.07)"><path d="M16,44.69V25.261h4.8V40.518h9.657V44.69Z" transform="translate(0 -1.905)" fill="#030404"></path><path d="M135.307,23.07A9.778,9.778,0,0,1,145.336,33.1a10,10,0,0,1-20,0A9.765,9.765,0,0,1,135.307,23.07Zm.029,15.486a5.194,5.194,0,0,0,5.286-5.457,5.289,5.289,0,1,0-10.572,0A5.244,5.244,0,0,0,135.336,38.556Z" transform="translate(-95.078)" fill="#030404"></path> <path d="M294.2,32.89v11.8h-4.8V25.261h4.172l9.771,11.8v-11.8h4.8V44.69H304Z" transform="translate(-237.746 -1.905)" fill="#030404"></path> <path d="M463.411,31.3v9.057a15.056,15.056,0,0,1-8.372,2.714c-5.743,0-10.343-3.714-10.343-9.971,0-6.314,4.6-10.029,10.343-10.029a12.028,12.028,0,0,1,7.629,2.6l-2.2,3.628a8.292,8.292,0,0,0-5.315-1.8,5.218,5.218,0,0,0-5.486,5.6c0,3.514,2.371,5.543,5.686,5.543a7.862,7.862,0,0,0,3.514-.828V34.956h-4.657V31.3Z" transform="translate(-372.793)" fill="#030404"></path> <path d="M602.049,25.261h8.6c4.314,0,6.857,1.657,6.857,5.229a4.261,4.261,0,0,1-2.8,4.085c2.714.571,4.343,2.114,4.343,4.857,0,3.257-2.514,5.257-7.086,5.257h-9.914Zm7.829,7.629c1.714,0,2.686-.571,2.686-1.886,0-1.371-.914-1.914-2.629-1.914h-3.086v3.8Zm1.372,7.971c1.8,0,2.686-.686,2.686-2,0-1.429-1.029-2.086-2.914-2.086h-4.172v4.086Z" transform="translate(-509.627 -1.905)" fill="#030404"></path> <path d="M742.838,44.69V25.261h15.6v4.171H747.41v3.343h8.943V36.8H747.41v3.715h11.029V44.69Z" transform="translate(-632.057 -1.905)" fill="#030404"></path> <path d="M877.516,25.261h5.629l7.371,19.429h-4.857l-1.315-3.572H876.2l-1.343,3.572H870ZM877.4,37.6h5.743l-2.8-7.6Z" transform="translate(-742.638 -1.905)" fill="#030404"></path> <path d="M1062.372,25.261h-8.715V40.533h-2.428c-1.8,0-3.515-1.415-5.257-3.015a5.951,5.951,0,0,0,5.086-5.857c0-4.543-3.686-6.4-7.458-6.4h-9.229V44.69h4.8v-7h1.029c2.529,1.733,5.765,6.938,10.185,6.995l11.986.005c5.743,0,10.028-3.429,10.028-9.686C1072.4,28.689,1068.115,25.289,1062.372,25.261Zm-18.857,8.971h-4.343v-4.8h4.343a2.314,2.314,0,0,1,2.571,2.4A2.344,2.344,0,0,1,1043.515,34.232Zm18.657,6.3h-3.714v-11.1h3.714c3.143,0,5.286,1.971,5.286,5.571C1067.458,38.547,1065.315,40.533,1062.172,40.533Z" transform="translate(-885.574 -1.905)" fill="#030404"></path></g></svg>