<svg width="461" height="96" viewBox="0 0 461 96" fill="none" xmlns="http://www.w3.org/2000/svg">
<g clip-path="url(#clip0_39_2543)">
<path fill-rule="evenodd" clip-rule="evenodd" d="M14.4692 4.56492e-07H89.128C91.0282 -0.000476986 92.91 0.373566 94.6657 1.10076C96.4214 1.82796 98.0166 2.89405 99.3603 4.23814C100.704 5.58223 101.77 7.17797 102.497 8.9342C103.224 10.6904 103.598 12.5727 103.597 14.4736V81.5088C103.597 83.4093 103.223 85.2912 102.496 87.047C101.769 88.8028 100.703 90.3981 99.359 91.7419C98.0154 93.0856 96.4203 94.1513 94.6648 94.8783C92.9094 95.6053 91.0279 95.9792 89.128 95.9787H14.4692C12.5693 95.9792 10.6878 95.6053 8.93236 94.8783C7.17689 94.1513 5.58179 93.0856 4.23815 91.7419C2.89452 90.3981 1.82867 88.8028 1.10148 87.047C0.374285 85.2912 4.55474e-07 83.4093 4.55474e-07 81.5088V14.4736C-0.000476383 12.5727 0.373455 10.6904 1.10043 8.9342C1.82741 7.17797 2.89318 5.58223 4.23687 4.23814C5.58055 2.89405 7.17582 1.82796 8.93152 1.10076C10.6872 0.373566 12.5689 -0.000476986 14.4692 4.56492e-07ZM42.5716 80.6532C43.2759 79.9493 43.6721 78.9945 43.6731 77.9986L43.6767 17.9801C43.6767 16.9835 43.2809 16.0278 42.5765 15.3231C41.872 14.6185 40.9166 14.2226 39.9203 14.2226H24.0402C23.5468 14.2221 23.0581 14.319 22.6021 14.5076C22.1462 14.6963 21.7319 14.973 21.383 15.3221C21.034 15.6711 20.7574 16.0855 20.5688 16.5416C20.3802 16.9977 20.2833 17.4865 20.2838 17.9801V77.9986C20.2838 78.4919 20.381 78.9803 20.5698 79.436C20.7586 79.8917 21.0354 80.3057 21.3842 80.6543C21.7331 81.0029 22.1472 81.2794 22.603 81.4678C23.0587 81.6562 23.5471 81.753 24.0402 81.7525H39.9167C40.9123 81.7525 41.8672 81.3571 42.5716 80.6532ZM82.3306 80.653C83.0344 79.949 83.4297 78.9942 83.4297 77.9986L83.4334 17.9801C83.4339 17.4868 83.3371 16.9983 83.1488 16.5424C82.9604 16.0866 82.684 15.6723 82.3355 15.3233C81.987 14.9744 81.5731 14.6975 81.1176 14.5087C80.662 14.3198 80.1738 14.2226 79.6806 14.2226H63.7969C63.3037 14.2226 62.8155 14.3198 62.3599 14.5087C61.9044 14.6975 61.4905 14.9744 61.142 15.3233C60.7935 15.6723 60.5171 16.0866 60.3287 16.5424C60.1404 16.9983 60.0436 17.4868 60.0441 17.9801V77.9986C60.0441 78.9942 60.4395 79.949 61.1433 80.653C61.847 81.357 62.8016 81.7525 63.7969 81.7525H79.677C80.6723 81.7525 81.6268 81.357 82.3306 80.653ZM360.599 29.1C363.065 29.1 365.097 28.3567 366.697 26.8702C367.467 26.1797 368.079 25.332 368.492 24.3844C368.906 23.4368 369.111 22.4114 369.094 21.3776C369.119 20.3278 368.918 19.2848 368.504 18.3195C368.091 17.3542 367.475 16.4892 366.697 15.7832C365.097 14.2991 363.065 13.5558 360.599 13.5534C358.076 13.5534 356.015 14.2966 354.417 15.7832C353.64 16.4888 353.023 17.3537 352.61 18.3191C352.196 19.2845 351.995 20.3277 352.021 21.3776C352.001 22.4139 352.205 23.4423 352.619 24.3927C353.032 25.3431 353.646 26.1931 354.417 26.8848C356.015 28.3616 358.076 29.1 360.599 29.1ZM211.049 71.0984C213.075 74.6706 216.081 77.5887 219.711 79.5083C223.384 81.4725 227.513 82.4425 232.1 82.4183C236.441 82.4787 240.731 81.4666 244.587 79.4719C248.273 77.5498 251.336 74.6177 253.417 71.0184C255.574 67.3445 256.653 63.1008 256.653 58.2872C256.653 53.4736 255.587 49.2298 253.457 45.556C251.411 41.9645 248.383 39.0317 244.729 37.1024C240.861 35.1677 236.596 34.1626 232.271 34.167C227.947 34.1714 223.684 35.1853 219.82 37.1279C216.165 39.0562 213.137 41.9892 211.093 45.5814C208.962 49.2456 207.896 53.4893 207.896 58.3126C207.896 63.199 208.947 67.4609 211.049 71.0984ZM242.046 58.3126C242.046 62.0714 241.076 64.9595 239.136 66.9771C238.245 67.9461 237.16 68.7163 235.951 69.2378C234.743 69.7592 233.438 70.0201 232.122 70.0035C230.827 70.0317 229.543 69.7753 228.358 69.2523C227.174 68.7294 226.119 67.9527 225.267 66.9771C223.447 64.9571 222.536 62.0689 222.536 58.3126C222.534 54.5005 223.459 51.5978 225.311 49.6045C226.208 48.6583 227.288 47.9056 228.486 47.3926C229.685 46.8795 230.975 46.617 232.278 46.6211C233.582 46.6252 234.871 46.8958 236.066 47.4164C237.261 47.9369 238.337 48.6964 239.227 49.6481C241.106 51.6657 242.046 54.5539 242.046 58.3126ZM343.275 54.3587C343.275 48.0779 341.553 43.1746 338.108 39.6487C334.661 36.1082 330.017 34.3379 324.177 34.3379C320.958 34.3148 317.792 35.1578 315.01 36.7787C312.312 38.3048 310.03 40.4708 308.366 43.0861C306.865 40.3523 304.611 38.1074 301.871 36.6186C298.963 35.0718 295.71 34.2895 292.417 34.3452C289.653 34.2984 286.916 34.8884 284.417 36.0694C282.16 37.1396 280.197 38.7424 278.697 40.7399V34.8545H264.318V81.778H278.697V56.2938C278.699 53.265 279.499 50.9237 281.097 49.2698C282.694 47.616 284.894 46.7891 287.697 46.7891C290.499 46.7891 292.699 47.616 294.297 49.2698C295.894 50.9237 296.693 53.265 296.693 56.2938V81.778H311.006V56.2938C311.008 53.265 311.807 50.9237 313.402 49.2698C314.998 47.616 317.198 46.7891 320.002 46.7891C322.795 46.7891 324.99 47.616 326.588 49.2698C328.186 50.9237 328.984 53.265 328.984 56.2938V81.778H343.275V54.3587ZM353.37 34.8435H367.748V81.778H353.37V34.8435ZM419.923 39.6814C423.203 43.2413 424.843 48.1337 424.843 54.3586V81.778H410.549V56.2938C410.549 53.1558 409.735 50.7163 408.109 48.9752C406.482 47.234 404.3 46.3647 401.563 46.3671C398.814 46.3671 396.632 47.2364 395.018 48.9752C393.403 50.7139 392.59 53.1534 392.578 56.2938V81.778H378.185V34.8544H392.563V41.0673C394.072 38.9508 396.099 37.2575 398.45 36.1494C401.049 34.9094 403.899 34.287 406.778 34.3306C412.261 34.3355 416.643 36.1191 419.923 39.6814ZM461 81.778V69.5815H455.884C454.313 69.5815 453.193 69.2723 452.52 68.6576C451.847 68.0428 451.509 67.0316 451.509 65.6312V46.789H460.927V34.8435H451.509V23.4036H437.131V34.8435H431.414V46.789H437.131V65.4602C437.126 71.2365 438.58 75.4002 441.494 77.9513C444.408 80.5024 448.473 81.778 453.687 81.778H461ZM200.271 14.2227V81.7526H186.089V43.2644L169.641 81.7526H158.129L141.678 43.2644V81.7526H127.412V14.2227H144.256L163.892 61.3245L183.503 14.2227H200.271Z" fill="#B57BFF"/>
</g>
<defs>
<clipPath id="clip0_39_2543">
<rect width="461" height="95.9787" fill="#B57BFF"/>
</clipPath>
</defs>
</svg>
