<svg width="256" height="64" viewBox="0 0 256 64" fill="none" xmlns="http://www.w3.org/2000/svg">
<path d="M97.7962 50.91C95.6522 50.91 93.7225 50.5427 92.0073 49.8079C90.2921 49.0425 88.9444 47.971 87.9643 46.5933C86.9842 45.2157 86.4941 43.6084 86.4941 41.7715H92.0992C92.2217 43.1492 92.7577 44.2819 93.7072 45.1697C94.6874 46.0576 96.0503 46.5015 97.7962 46.5015C99.6033 46.5015 101.012 46.0729 102.023 45.2157C103.034 44.3278 103.539 43.1951 103.539 41.8174C103.539 40.7459 103.217 39.8734 102.574 39.1998C101.962 38.5263 101.181 38.0058 100.231 37.6385C99.3123 37.2711 98.0259 36.8731 96.3719 36.4445C94.2892 35.8934 92.5893 35.3424 91.2722 34.7913C89.9858 34.2096 88.8832 33.3218 87.9643 32.1278C87.0455 30.9338 86.586 29.3418 86.586 27.3519C86.586 25.515 87.0455 23.9077 87.9643 22.53C88.8832 21.1523 90.1696 20.0961 91.8236 19.3614C93.4775 18.6266 95.3918 18.2592 97.5665 18.2592C100.66 18.2592 103.187 19.0399 105.147 20.6013C107.138 22.132 108.241 24.2444 108.455 26.9386H102.666C102.574 25.7752 102.023 24.7802 101.012 23.9536C100.001 23.127 98.6691 22.7137 97.0152 22.7137C95.5143 22.7137 94.2892 23.0964 93.3397 23.8618C92.3902 24.6271 91.9154 25.7293 91.9154 27.1682C91.9154 28.1478 92.2064 28.9591 92.7884 29.6021C93.4009 30.2144 94.1667 30.7042 95.0855 31.0716C96.0044 31.4389 97.2602 31.8369 98.8529 32.2656C100.966 32.8472 102.681 33.4289 103.999 34.0106C105.346 34.5923 106.479 35.4954 107.398 36.72C108.348 37.914 108.823 39.5213 108.823 41.5419C108.823 43.1645 108.378 44.6952 107.49 46.1341C106.633 47.573 105.362 48.7364 103.677 49.6242C102.023 50.4814 100.063 50.91 97.7962 50.91Z" fill="#489DDA"/>
<path d="M120.24 29.0051C121.128 27.8417 122.338 26.862 123.87 26.066C125.401 25.27 127.132 24.872 129.061 24.872C131.267 24.872 133.273 25.4231 135.08 26.5253C136.918 27.5968 138.357 29.1122 139.399 31.0716C140.44 33.0309 140.961 35.2811 140.961 37.8222C140.961 40.3632 140.44 42.644 139.399 44.6646C138.357 46.6546 136.918 48.2159 135.08 49.3487C133.273 50.4508 131.267 51.0019 129.061 51.0019C127.132 51.0019 125.416 50.6192 123.916 49.8538C122.415 49.0578 121.19 48.0782 120.24 46.9148V62.6203H115.003V25.2853H120.24V29.0051ZM135.631 37.8222C135.631 36.0771 135.264 34.577 134.529 33.3218C133.824 32.0359 132.875 31.0716 131.68 30.4287C130.516 29.7551 129.26 29.4184 127.913 29.4184C126.596 29.4184 125.34 29.7551 124.145 30.4287C122.981 31.1022 122.032 32.0819 121.297 33.3677C120.592 34.6535 120.24 36.169 120.24 37.914C120.24 39.6591 120.592 41.1898 121.297 42.5062C122.032 43.7921 122.981 44.7718 124.145 45.4453C125.34 46.1188 126.596 46.4556 127.913 46.4556C129.26 46.4556 130.516 46.1188 131.68 45.4453C132.875 44.7411 133.824 43.7308 134.529 42.4144C135.264 41.098 135.631 39.5672 135.631 37.8222Z" fill="#489DDA"/>
<path d="M169.341 37.317C169.341 38.2661 169.28 39.1233 169.158 39.8887H149.815C149.969 41.9093 150.719 43.5318 152.067 44.7564C153.414 45.981 155.068 46.5933 157.029 46.5933C159.846 46.5933 161.837 45.4147 163.001 43.0573H168.652C167.886 45.3841 166.493 47.2975 164.471 48.7976C162.48 50.2671 160 51.0019 157.029 51.0019C154.609 51.0019 152.434 50.4661 150.505 49.3946C148.606 48.2925 147.105 46.7617 146.002 44.8024C144.93 42.8124 144.394 40.5163 144.394 37.914C144.394 35.3117 144.915 33.0309 145.956 31.0716C147.028 29.0816 148.514 27.5509 150.413 26.4793C152.342 25.4078 154.548 24.872 157.029 24.872C159.418 24.872 161.546 25.3925 163.415 26.4334C165.283 27.4743 166.738 28.9438 167.779 30.842C168.821 32.7095 169.341 34.8678 169.341 37.317ZM163.874 35.6638C163.843 33.7351 163.154 32.189 161.807 31.0256C160.459 29.8623 158.79 29.2806 156.799 29.2806C154.992 29.2806 153.445 29.8623 152.159 31.0256C150.872 32.1584 150.106 33.7045 149.861 35.6638H163.874Z" fill="#489DDA"/>
<path d="M172.75 37.914C172.75 35.3117 173.27 33.0309 174.312 31.0716C175.384 29.0816 176.854 27.5509 178.722 26.4793C180.591 25.4078 182.735 24.872 185.154 24.872C188.217 24.872 190.744 25.6068 192.735 27.0763C194.757 28.5152 196.12 30.5817 196.824 33.2758H191.173C190.714 32.0206 189.978 31.041 188.968 30.3368C187.957 29.6327 186.686 29.2806 185.154 29.2806C183.01 29.2806 181.295 30.046 180.009 31.5767C178.753 33.0768 178.125 35.1893 178.125 37.914C178.125 40.6387 178.753 42.7665 180.009 44.2972C181.295 45.828 183.01 46.5933 185.154 46.5933C188.187 46.5933 190.193 45.2616 191.173 42.5981H196.824C196.089 45.1697 194.711 47.2209 192.689 48.7517C190.668 50.2518 188.156 51.0019 185.154 51.0019C182.735 51.0019 180.591 50.4661 178.722 49.3946C176.854 48.2925 175.384 46.7617 174.312 44.8024C173.27 42.8124 172.75 40.5163 172.75 37.914Z" fill="#489DDA"/>
<path d="M214.816 24.872C216.807 24.872 218.583 25.2853 220.145 26.1119C221.738 26.9386 222.978 28.1631 223.867 29.7857C224.755 31.4083 225.199 33.3677 225.199 35.6638V50.5886H220.007V36.4445C220.007 34.179 219.441 32.4492 218.308 31.2553C217.174 30.0307 215.628 29.4184 213.667 29.4184C211.707 29.4184 210.145 30.0307 208.981 31.2553C207.848 32.4492 207.281 34.179 207.281 36.4445V50.5886H202.044V25.2853H207.281V28.1785C208.139 27.1375 209.226 26.3263 210.543 25.7446C211.891 25.1629 213.315 24.872 214.816 24.872Z" fill="#489DDA"/>
<path d="M242.86 51.0019C240.471 51.0019 238.312 50.4661 236.382 49.3946C234.453 48.2925 232.936 46.7617 231.834 44.8024C230.731 42.8124 230.18 40.5163 230.18 37.914C230.18 35.3424 230.747 33.0615 231.88 31.0716C233.013 29.0816 234.56 27.5509 236.52 26.4793C238.48 25.4078 240.67 24.872 243.09 24.872C245.51 24.872 247.7 25.4078 249.66 26.4793C251.62 27.5509 253.167 29.0816 254.3 31.0716C255.433 33.0615 256 35.3424 256 37.914C256 40.4857 255.418 42.7665 254.254 44.7564C253.09 46.7464 251.498 48.2925 249.476 49.3946C247.485 50.4661 245.28 51.0019 242.86 51.0019ZM242.86 46.4556C244.208 46.4556 245.464 46.1341 246.628 45.4912C247.822 44.8483 248.787 43.8839 249.522 42.5981C250.257 41.3123 250.625 39.7509 250.625 37.914C250.625 36.0771 250.272 34.5311 249.568 33.2758C248.864 31.99 247.929 31.0256 246.765 30.3827C245.602 29.7398 244.346 29.4184 242.998 29.4184C241.65 29.4184 240.395 29.7398 239.231 30.3827C238.097 31.0256 237.194 31.99 236.52 33.2758C235.846 34.5311 235.509 36.0771 235.509 37.914C235.509 40.6387 236.198 42.7512 237.577 44.2513C238.986 45.7208 240.747 46.4556 242.86 46.4556Z" fill="#489DDA"/>
<path d="M59.812 16.0709L34.944 1.85477C33.9196 1.26885 32.7575 0.960388 31.5746 0.960388C30.3917 0.960388 29.2297 1.26885 28.2052 1.85477L3.36762 16.0709C2.34427 16.6566 1.49442 17.4987 0.903336 18.5125C0.31225 19.5264 0.000717844 20.6764 0 21.8472L0 50.2818C0.001537 51.4518 0.313457 52.6009 0.904503 53.6139C1.49555 54.6269 2.34496 55.4682 3.36762 56.0535L15.5983 63.0533L15.7035 63.1181C16.1716 63.3179 16.6619 63.4624 17.1641 63.5488H17.2038L17.4013 63.5812C18.5602 63.7662 19.7484 63.6197 20.8262 63.1587L20.9535 63.1019C21.061 63.0545 21.1253 63.0232 21.1452 63.0128C24.2826 61.4651 27.7495 56.7422 29.7336 44.4673C30.285 44.7396 30.8925 44.8819 31.5086 44.8829H31.574C32.155 44.8724 32.7269 44.7381 33.2508 44.4893L33.3829 44.4222C35.3693 56.7307 38.8363 61.4663 41.9795 63.014C41.9994 63.014 42.0648 63.0556 42.1712 63.1031L42.2985 63.1598C43.3771 63.6208 44.566 63.7674 45.7257 63.5823L45.9209 63.5499H45.9606C46.5109 63.4543 47.0463 63.2881 47.5533 63.0556L47.6631 62.9908L48.6961 62.412L48.7358 62.3819L59.7956 56.0593C60.8189 55.4733 61.6687 54.631 62.2595 53.617C62.8504 52.6029 63.1617 51.4527 63.1621 50.2818V21.8495C63.1636 20.68 62.8549 19.5307 62.2669 18.5165C61.679 17.5024 60.8324 16.659 59.812 16.0709ZM41.5916 35.7832V35.8122L40.1286 42.8097C40.105 42.9369 40.0468 43.0553 39.9602 43.1521C39.8736 43.2488 39.762 43.3204 39.6373 43.3588C39.5127 43.3973 39.3798 43.4014 39.253 43.3705C39.1263 43.3396 39.0104 43.275 38.9181 43.1836L38.8958 43.1685L34.8061 40.3394C33.9712 41.2194 32.8243 41.7443 31.6067 41.8038H31.539C30.324 41.7637 29.1727 41.2563 28.3291 40.3892L24.251 43.2206C24.2398 43.233 24.2263 43.2432 24.2113 43.2507C24.117 43.331 24.0028 43.385 23.8804 43.4072C23.7581 43.4294 23.6319 43.4189 23.515 43.3768C23.3981 43.3347 23.2946 43.2626 23.2151 43.1678C23.1356 43.0731 23.083 42.959 23.0627 42.8375L21.6056 35.8272V35.7404C21.5695 35.5402 21.5812 35.3344 21.6396 35.1395C21.698 34.9445 21.8016 34.7658 21.9421 34.6175L24.7465 31.9621L24.9486 31.7722C25.8472 23.2247 28.0907 19.517 30.36 17.0329C30.7771 16.5698 31.1931 16.16 31.6079 15.7595C32.0344 16.1751 32.4714 16.6103 32.9061 17.0919C35.152 19.5795 37.3686 23.2953 38.2602 31.7699L38.3455 31.8486L41.2539 34.6002C41.4006 34.756 41.5069 34.9447 41.5639 35.1501C41.6209 35.3555 41.6268 35.5716 41.5811 35.7798L41.5916 35.7832ZM31.6067 23.6843C32.1964 23.6866 32.761 23.9205 33.1766 24.3347C33.5923 24.749 33.8251 25.3097 33.824 25.8938C33.8228 26.4779 33.5878 27.0376 33.1704 27.4503C32.7531 27.8629 32.1876 28.0946 31.598 28.0946C31.0084 28.0946 30.4428 27.8629 30.0255 27.4503C29.6082 27.0376 29.3732 26.4779 29.372 25.8938C29.3708 25.3097 29.6036 24.749 30.0193 24.3347C30.435 23.9205 30.9996 23.6866 31.5892 23.6843H31.6067Z" fill="#489DDA"/>
</svg>
